<?xml version="1.0" encoding="UTF-8"?>
<svg width="1536px" height="1536px" viewBox="0 0 1536 1536" version="1.1" xmlns="http://www.w3.org/2000/svg" xmlns:xlink="http://www.w3.org/1999/xlink">
    <!-- Generator: Sketch 52.6 (67491) - http://www.bohemiancoding.com/sketch -->
    <title>Shape</title>
    <desc>Created with Sketch.</desc>
    <g id="Page-1" stroke="none" stroke-width="1" fill="none" fill-rule="evenodd">
        <g id="gh" fill="#606060" fill-rule="nonzero">
            <path d="M519,1072 C521.666667,1068 520.666667,1063.66667 516,1059 C510,1054.33333 505.333333,1053.66667 502,1057 C499.333333,1061 500.333333,1065.33333 505,1070 C511,1074.66667 515.666667,1075.33333 519,1072 Z M491,1031 C487.666667,1026.33333 483.666667,1025 479,1027 C475,1029.66667 475,1033.66667 479,1039 C483.666667,1044.33333 487.666667,1046 491,1044 C495,1041.33333 495,1037 491,1031 Z M450,991 C451.333333,988.333333 449.666667,985.666667 445,983 C440.333333,981.666667 437.666667,982.333333 437,985 C435,988.333333 436.333333,991 441,993 C446.333333,994.333333 449.333333,993.666667 450,991 Z M471,1014 C472.333333,1013.33333 472.833333,1011.83333 472.5,1009.5 C472.166667,1007.16667 471,1005.33333 469,1004 C465,999.333333 461.666667,998.333333 459,1001 C456.333333,1003.66667 456.666667,1007.33333 460,1012 C464,1016 467.666667,1016.66667 471,1014 Z M557,1089 C558.333333,1084.33333 555.333333,1080.66667 548,1078 C542,1076 537.666667,1077.33333 535,1082 C533.666667,1086.66667 536.666667,1090.33333 544,1093 C550,1095 554.333333,1093.66667 557,1089 Z M599,1092 C599,1086.66667 595,1084 587,1084 C580.333333,1084 577,1086.66667 577,1092 C577,1097.33333 580.666667,1100 588,1100 C595.333333,1100 599,1097.33333 599,1092 Z M638,1085 C636.666667,1080.33333 632.333333,1078.66667 625,1080 C617.666667,1081.33333 614.666667,1084.33333 616,1089 C617.333333,1094.33333 621.333333,1096.33333 628,1095 C634.666667,1093.66667 638,1090.33333 638,1085 Z M1280,768 C1280,626.666667 1230,506 1130,406 C1030,306 909.333333,256 768,256 C626.666667,256 506,306 406,406 C306,506 256,626.666667 256,768 C256,879.333333 288.666667,979.5 354,1068.5 C419.333333,1157.5 503.333333,1219.33333 606,1254 C618,1256 626.833333,1254.33333 632.5,1249 C638.166667,1243.66667 641,1237 641,1229 C641,1194.33333 640.666667,1162.66667 640,1134 C636,1134.66667 630.833333,1135.5 624.5,1136.5 C618.166667,1137.5 606.333333,1138.16667 589,1138.5 C571.666667,1138.83333 555.666667,1137.5 541,1134.5 C526.333333,1131.5 511.833333,1124.83333 497.5,1114.5 C483.166667,1104.16667 473.333333,1090.33333 468,1073 C452.666667,1033.66667 433.666667,1009 411,999 C409.666667,998.333333 408.166667,997.166667 406.5,995.5 L398.5,987.5 L391.5,978 L395.5,970.5 L415,967 C419,967 424,967.666667 430,969 C436,970.333333 446,975.5 460,984.5 C474,993.5 485,1005.33333 493,1020 C503.666667,1038.66667 516.166667,1052.66667 530.5,1062 C544.833333,1071.33333 559.333333,1076 574,1076 C588.666667,1076 601.333333,1074.83333 612,1072.5 C622.666667,1070.16667 632.666667,1067 642,1063 C646.666667,1031.66667 657.666667,1008.66667 675,994 C642.333333,990 613.666667,983.833333 589,975.5 C564.333333,967.166667 540,954.166667 516,936.5 C492,918.833333 473.5,893.5 460.5,860.5 C447.5,827.5 441,787.666667 441,741 C441,688.333333 458.666667,642.666667 494,604 C478,562.666667 479.666667,517.333333 499,468 C511.666667,464 529.833333,466.5 553.5,475.5 C577.166667,484.5 597.333333,494.333333 614,505 L640,521 C678.666667,509.666667 721.333333,504 768,504 C814.666667,504 857.333333,509.666667 896,521 C903.333333,516.333333 912.833333,510.333333 924.5,503 C936.166667,495.666667 954.666667,487 980,477 C1005.33333,467 1024.33333,464 1037,468 C1056.33333,517.333333 1058,562.666667 1042,604 C1077.33333,642.666667 1095,688.333333 1095,741 C1095,779 1090.33333,812.5 1081,841.5 C1071.66667,870.5 1059.83333,893.833333 1045.5,911.5 C1031.16667,929.166667 1013.33333,944 992,956 C970.666667,968 949.833333,976.666667 929.5,982 C909.166667,987.333333 886.333333,991.333333 861,994 C884.333333,1014.66667 896,1046.33333 896,1089 C896,1115.66667 895.833333,1145.33333 895.5,1178 C895.166667,1210.66667 895,1227.66667 895,1229 C895,1237 897.833333,1243.66667 903.5,1249 C909.166667,1254.33333 918,1256 930,1254 C1032.66667,1219.33333 1116.66667,1157.5 1182,1068.5 C1247.33333,979.5 1280,879.333333 1280,768 Z M1536,288 L1536,1248 C1536,1327.33333 1507.83333,1395.16667 1451.5,1451.5 C1395.16667,1507.83333 1327.33333,1536 1248,1536 L288,1536 C208.666667,1536 140.833333,1507.83333 84.5,1451.5 C28.1666667,1395.16667 0,1327.33333 0,1248 L0,288 C0,208.666667 28.1666667,140.833333 84.5,84.5 C140.833333,28.1666667 208.666667,0 288,0 L1248,0 C1327.33333,0 1395.16667,28.1666667 1451.5,84.5 C1507.83333,140.833333 1536,208.666667 1536,288 Z" id="Shape"></path>
        </g>
    </g>
</svg>